<svg height="505pt" viewBox="-20 0 505 505.49216" width="505pt" xmlns="http://www.w3.org/2000/svg"><path d="m437.398438 435.757812 4.851562-3.234374c4.863281-3.246094 6.210938-9.800782 3.019531-14.699219l-145.753906-230.515625-55.527344 53.222656 137.179688 219.734375c1.550781 2.394531 3.996093 4.070313 6.789062 4.648437 2.796875.578126 5.707031.011719 8.078125-1.570312l5.867188-3.914062 28.71875 43.078124 35.5-23.667968zm0 0"/><path d="m.367188 426.667969v68.15625c0 4.792969 3.199218 9 7.820312 10.28125 4.621094 1.277343 9.527344-.683594 11.992188-4.792969l158.5625-264.265625-40.636719-38.933594zm0 0"/><path d="m299.035156 149.332031v-42.664062c0-35.347657-28.65625-64-64-64v-42.667969h-42.667968v42.667969c-35.347657 0-64 28.652343-64 64v42.664062c0 6.714844 3.160156 13.039063 8.535156 17.066407l62.039062 59.46875c8.25 7.90625 21.265625 7.90625 29.519532 0l62.039062-59.46875c5.371094-4.027344 8.535156-10.351563 8.535156-17.066407zm-85.335937 0c-11.78125 0-21.332031-9.550781-21.332031-21.332031s9.550781-21.332031 21.332031-21.332031c11.785156 0 21.335937 9.550781 21.335937 21.332031s-9.550781 21.332031-21.335937 21.332031zm0 0"/></svg>